<svg xmlns="http://www.w3.org/2000/svg" width="38.168" height="29.912" viewBox="0 0 38.168 29.912">
  <path id="Icon_metro-air" data-name="Icon metro-air" d="M7.6,13.146c3.7-3.032,6.63-5.428,14.571-1.152,3.815,2.053,6.891,2.829,9.45,2.825,4.485,0,7.392-2.377,9.9-4.432a2.027,2.027,0,0,0,.259-2.908,2.163,2.163,0,0,0-2.99-.253c-3.7,3.036-6.63,5.433-14.571,1.152C13.729,2.734,8.815,6.755,4.866,9.989A2.028,2.028,0,0,0,4.61,12.9a2.162,2.162,0,0,0,2.988.249Zm31.195,4.4c-3.7,3.032-6.63,5.433-14.571,1.152C13.73,13.051,8.815,17.075,4.866,20.306a2.027,2.027,0,0,0-.257,2.908,2.16,2.16,0,0,0,2.988.253c3.7-3.034,6.63-5.43,14.571-1.156a20.076,20.076,0,0,0,9.45,2.829c4.485,0,7.392-2.377,9.9-4.436a2.025,2.025,0,0,0,.259-2.906,2.161,2.161,0,0,0-2.99-.251Zm0,10.319c-3.7,3.036-6.63,5.433-14.571,1.156C13.73,23.374,8.815,27.4,4.866,30.63a2.027,2.027,0,0,0-.257,2.908,2.16,2.16,0,0,0,2.988.249c3.7-3.032,6.63-5.426,14.571-1.152,3.815,2.053,6.891,2.829,9.45,2.829,4.485,0,7.392-2.381,9.9-4.436a2.027,2.027,0,0,0,.259-2.908,2.165,2.165,0,0,0-2.99-.253Z" transform="translate(-4.112 -5.552)" fill="#fff"/>
</svg>
