<svg xmlns="http://www.w3.org/2000/svg" width="43.956" height="44" viewBox="0 0 43.956 44">
  <path id="Icon_awesome-fan" data-name="Icon awesome-fan" d="M30.268,11a19.364,19.364,0,0,0-6.616,1.105l1.065-10.58a1.405,1.405,0,0,0-1.6-1.514A13.835,13.835,0,0,0,10.989,13.7a19.419,19.419,0,0,0,1.1,6.622L1.524,19.257a1.405,1.405,0,0,0-1.513,1.6A13.831,13.831,0,0,0,13.687,33,19.364,19.364,0,0,0,20.3,31.895l-1.065,10.58a1.407,1.407,0,0,0,1.6,1.514A13.835,13.835,0,0,0,32.966,30.3a19.419,19.419,0,0,0-1.1-6.622l10.569,1.066a1.406,1.406,0,0,0,1.513-1.6A13.831,13.831,0,0,0,30.268,11ZM21.978,24.75A2.75,2.75,0,1,1,24.725,22,2.749,2.749,0,0,1,21.978,24.75Z" transform="translate(0 0)" fill="#fff"/>
</svg>
