<svg xmlns="http://www.w3.org/2000/svg" width="12" height="18" viewBox="0 0 12 18">
  <path id="Icon_metro-location" data-name="Icon metro-location" d="M14.355,1.928a5.822,5.822,0,0,0-6,5.625c0,5.625,6,12.375,6,12.375s6-6.75,6-12.375a5.822,5.822,0,0,0-6-5.625Zm0,9.07A3.566,3.566,0,0,1,10.68,7.553a3.566,3.566,0,0,1,3.675-3.445A3.566,3.566,0,0,1,18.03,7.553,3.566,3.566,0,0,1,14.355,11ZM12.03,7.553a2.33,2.33,0,0,1,4.65,0,2.33,2.33,0,0,1-4.65,0Z" transform="translate(-8.355 -1.928)" fill="#fff"/>
</svg>
